<svg width="36" height="36" viewBox="0 0 36 36" fill="none" xmlns="http://www.w3.org/2000/svg">
<g clip-path="url(#clip0_5183_1992)">
<path d="M19.1829 2.07025C18.5813 1.96343 17.9615 2.04993 17.4121 2.31738C16.7031 1.87557 15.7857 1.96398 15.1742 2.53321L13.2084 4.37377V4.21341C13.2084 2.55709 11.8657 1.21436 10.2091 1.21436C9.21532 1.21436 8.40967 2.02 8.40967 3.01374V8.88884L6.94117 10.4815C6.52407 10.9318 6.29698 11.5257 6.3066 12.1394C6.29479 14.2304 6.44911 16.3195 6.76845 18.386C6.78136 18.4333 6.80031 18.4786 6.82474 18.5211L5.84583 21.275C5.47349 22.3 5.84831 23.447 6.7539 24.0546L7.09659 24.2875C6.74676 25.307 7.11856 26.4348 8.00575 27.0468L17.718 33.7051C17.8816 33.8171 17.9791 34.0024 17.9791 34.2004C17.9791 35.1944 18.7847 36.0001 19.7785 36.0001H28.4961C29.0434 36.0015 29.5613 35.7519 29.9009 35.3229C30.2475 34.8869 30.3732 34.3152 30.2417 33.774L29.366 30.5349C29.058 29.1194 28.9673 27.6652 29.0972 26.2225C29.5915 19.9537 25.3889 15.4251 24.3229 14.6382C22.3621 13.1927 20.8996 11.6858 20.3093 10.5034C19.4245 8.7293 20.0209 7.51562 20.5973 6.3423C21.0809 5.3579 21.5812 4.34055 20.8714 3.2735C20.4963 2.65897 19.8864 2.22429 19.1829 2.07025ZM10.2091 2.41403C11.2031 2.41403 12.0087 3.21968 12.0087 4.21341V5.49712L9.60935 7.74298V3.01374C9.60935 2.85475 9.67251 2.70208 9.78509 2.58977C9.8974 2.47719 10.0501 2.41403 10.2091 2.41403ZM7.50627 12.1232C7.50133 11.8165 7.61501 11.5197 7.82343 11.2948L9.40643 9.57503C9.42098 9.56268 9.43444 9.54977 9.44735 9.53604L12.9698 6.23988C13.0038 6.21407 13.0349 6.18469 13.0626 6.15229L16.0092 3.39294C16.244 3.16448 16.6182 3.16448 16.853 3.39294L16.8939 3.35203C16.9085 3.36905 16.9241 3.38471 16.9406 3.39953L16.9027 3.44814C17.5543 4.1541 17.5362 5.24724 16.8621 5.93152L14.5028 8.1966L11.1808 11.1885C10.965 11.4183 10.8516 11.7256 10.8659 12.0403C9.74967 12.1855 8.80865 12.9437 8.42944 14.0036L7.67652 16.1212C7.55598 14.6467 7.51753 12.9772 7.50627 12.1232ZM12.0603 12.0115L13.7938 10.4518C13.771 10.9724 13.79 11.4941 13.8509 12.0115H12.0603ZM6.97412 21.6841L9.56075 14.4056C9.81969 13.6862 10.5037 13.2076 11.2684 13.2111H16.4159C16.5403 13.212 16.6616 13.251 16.7629 13.3229L19.868 15.5232C19.9894 15.6072 20.063 15.7448 20.0652 15.8925C20.0663 15.9768 20.0443 16.0597 20.0017 16.1325C19.9806 16.1674 19.9531 16.202 19.9279 16.2363L18.9536 15.5394C18.4467 15.1753 17.8382 14.9798 17.2141 14.9803H12.4934C11.2234 14.9822 10.0924 15.784 9.66976 16.9818L7.51039 23.1183L7.43241 23.0656C6.97879 22.7663 6.78932 22.1951 6.97412 21.6841ZM19.5231 5.82113C18.9171 7.05321 18.0881 8.74111 19.2386 11.0471C20.1582 12.8904 22.3742 14.6983 23.6134 15.6105C24.41 16.1967 28.3569 20.3837 27.9036 26.1355C27.7635 27.7072 27.8646 29.2913 28.2034 30.8323L29.0791 34.0716C29.12 34.2493 29.0777 34.436 28.9643 34.5791C28.8509 34.7219 28.6785 34.8053 28.4961 34.8059H19.7755C19.4443 34.8059 19.1758 34.5371 19.1758 34.2059C19.1766 33.6125 18.8847 33.057 18.3959 32.7207L8.68426 26.0624C8.23668 25.7544 8.05106 25.1846 8.23146 24.6719L10.8005 17.3777C11.0542 16.6605 11.7314 16.1803 12.4923 16.1781H17.213C17.5873 16.1778 17.9522 16.295 18.2562 16.5133L21.0257 18.4959C21.2204 18.6376 21.2747 18.9039 21.1517 19.1107C20.9002 19.5324 20.4867 19.832 20.008 19.9402C19.5292 20.0481 19.0269 19.9548 18.6189 19.6818L17.4192 18.8811C17.1243 18.6826 16.7767 18.5769 16.4211 18.5774H14.5736C13.7927 18.5728 13.0994 19.0766 12.863 19.821C12.8275 19.9331 12.777 20.0723 12.7202 20.2288C12.2882 21.4224 11.2805 24.2156 13.567 25.1327C13.7677 25.2219 14.0011 25.1942 14.1755 25.0607C14.3499 24.9273 14.4372 24.7093 14.4034 24.4923C14.3696 24.2751 14.22 24.0942 14.0135 24.0198C13.0074 23.6161 13.2197 22.375 13.8485 20.6374C13.9119 20.4622 13.9685 20.3082 14.0069 20.1832C14.0868 19.9386 14.3164 19.7741 14.5736 19.7771H16.4205C16.5383 19.7771 16.6534 19.8123 16.7511 19.8779L17.9508 20.6794C18.6324 21.1344 19.4707 21.2901 20.27 21.11C21.0693 20.9298 21.7599 20.4295 22.1803 19.7263C22.6202 18.9827 22.4214 18.0263 21.7215 17.52L20.9016 16.9302C20.9452 16.8703 20.9927 16.8104 21.0298 16.7503C21.4752 16.0073 21.2714 15.0468 20.5633 14.5484L17.459 12.3445C17.154 12.1287 16.7896 12.0123 16.4159 12.0115H15.0594C14.9347 11.0825 14.9649 10.139 15.1484 9.21972L17.7042 6.78933C18.6282 5.86095 18.843 4.44022 18.2345 3.28009C18.8704 3.07991 19.5585 3.35944 19.8751 3.94596C20.1725 4.39354 20.0058 4.83865 19.5231 5.82113Z" fill="white"/>
<path d="M16.9725 25.2083C16.769 25.1405 16.5447 25.1863 16.384 25.3286C16.2234 25.4708 16.1509 25.688 16.1938 25.8984C16.2369 26.1087 16.3887 26.28 16.5922 26.3481C17.9767 26.8122 21.571 28.477 21.571 30.5776C21.571 30.9088 21.8396 31.1773 22.1707 31.1773C22.5022 31.1773 22.7707 30.9088 22.7707 30.5776C22.7688 27.1818 17.2095 25.2857 16.9725 25.2083Z" fill="white"/>
<path d="M21.0248 23.0125C20.8949 22.8417 20.684 22.7533 20.4715 22.7805C20.2587 22.8077 20.0766 22.9461 19.994 23.1438C19.9111 23.3415 19.9399 23.5683 20.0698 23.7388C20.985 24.9385 22.5076 26.3746 24.5631 26.3746C24.8946 26.3746 25.1631 26.106 25.1631 25.7746C25.1631 25.4434 24.8946 25.1749 24.5631 25.1749C22.9988 25.1749 21.7774 23.9986 21.0248 23.0125Z" fill="white"/>
<path d="M21.4347 0.200933L20.863 0.80091C20.7068 0.954405 20.6466 1.18094 20.7062 1.39155C20.7658 1.60244 20.9358 1.76417 21.1491 1.81305C21.3628 1.8622 21.586 1.79108 21.7315 1.62742L22.3032 1.02745C22.4595 0.873951 22.5196 0.647415 22.46 0.43653C22.4004 0.225921 22.2305 0.0641875 22.0171 0.0153107C21.8035 -0.0338408 21.5802 0.0372778 21.4347 0.200933Z" fill="white"/>
<path d="M24.2752 2.89316C24.2323 2.73994 24.1302 2.61006 23.9912 2.53208C23.8526 2.4541 23.6884 2.43433 23.5351 2.47744L22.7553 2.69711C22.4642 2.77619 22.277 3.05902 22.3182 3.35804C22.3594 3.6568 22.6161 3.87839 22.9179 3.87592C22.9731 3.87592 23.028 3.86823 23.081 3.85313L23.8608 3.63401C24.014 3.5909 24.1439 3.48847 24.2216 3.34953C24.2993 3.21059 24.3185 3.04639 24.2752 2.89316Z" fill="white"/>
<path d="M22.6041 5.33351C22.285 5.24399 21.9539 5.42989 21.8644 5.74896C21.7746 6.06803 21.9607 6.39919 22.2795 6.4887L23.0594 6.70837C23.1126 6.7232 23.1676 6.73089 23.2228 6.73062C23.5223 6.73034 23.7761 6.50902 23.8167 6.21219C23.8573 5.91509 23.6725 5.63391 23.3839 5.55291L22.6041 5.33351Z" fill="white"/>
</g>
<defs>
<clipPath id="clip0_5183_1992">
<rect width="36" height="36" fill="white"/>
</clipPath>
</defs>
</svg>
