<svg width="36" height="36" viewBox="0 0 36 36" fill="none" xmlns="http://www.w3.org/2000/svg">
<g clip-path="url(#clip0_5183_2033)">
<path d="M29.25 32.0625H30.375V33.1875H29.25V32.0625Z" fill="white"/>
<path d="M27 32.0625H28.125V33.1875H27V32.0625Z" fill="white"/>
<path d="M24.75 32.0625H25.875V33.1875H24.75V32.0625Z" fill="white"/>
<path d="M24.75 29.8125H30.375V30.9375H24.75V29.8125Z" fill="white"/>
<path d="M9.5625 3.9375H7.3125V5.0625H5.0625V6.1875H2.8125V9.5625H12.9375V2.8125H9.5625V3.9375ZM7.3125 6.1875V8.4375H6.1875V6.1875H7.3125ZM3.9375 7.3125H5.0625V8.4375H3.9375V7.3125ZM8.4375 8.4375V5.0625H9.5625V8.4375H8.4375ZM10.6875 3.9375H11.8125V8.4375H10.6875V3.9375Z" fill="white"/>
<path d="M3.9375 15.1875H5.0625V16.3125H3.9375V15.1875Z" fill="white"/>
<path d="M6.1875 15.1875H7.3125V16.3125H6.1875V15.1875Z" fill="white"/>
<path d="M8.4375 15.1875H9.5625V16.3125H8.4375V15.1875Z" fill="white"/>
<path d="M29.8125 23.0625H30.9375V24.1875H29.8125V23.0625Z" fill="white"/>
<path d="M27.5625 23.0625H28.6875V24.1875H27.5625V23.0625Z" fill="white"/>
<path d="M25.3125 23.0625H26.4375V24.1875H25.3125V23.0625Z" fill="white"/>
<path d="M5.625 27.5625H6.75V28.6875H5.625V27.5625Z" fill="white"/>
<path d="M5.625 29.8125H6.75V30.9375H5.625V29.8125Z" fill="white"/>
<path d="M5.625 32.0625H6.75V33.1875H5.625V32.0625Z" fill="white"/>
<path fill-rule="evenodd" clip-rule="evenodd" d="M19.6875 8.99993C19.6875 7.61971 20.6868 6.46851 22 6.23193V7.38805C21.3129 7.60168 20.8125 8.24355 20.8125 8.99993V20.8124H21.9375V19.1249C21.9375 17.8337 22.8121 16.743 24 16.4139V17.6135C23.4448 17.8901 23.0625 18.4638 23.0625 19.1249V20.8124H32.4101L35.2226 26.4374H32.625V35.4374H3.37497V26.4374H0.777344L3.58984 20.8124H15.1875V17.9999C15.1875 17.0696 14.4303 16.3124 13.5 16.3124H13V15.1874H13.5C15.0508 15.1874 16.3125 16.4491 16.3125 17.9999V20.8124H17.4375V8.99993C17.4375 8.56458 17.2717 8.16717 17 7.86752V6.48076C17.9253 6.94177 18.5625 7.89784 18.5625 8.99993V20.8124H19.6875V8.99993ZM4.28509 21.9374H12.5898L10.9023 25.3124H2.59759L4.28509 21.9374ZM4.49997 26.4374H11.5976L13.5 22.6327V34.3124H4.49997V26.4374ZM14.625 34.3124V22.6327L16.5273 26.4374H31.5V34.3124H14.625ZM33.4023 25.3124H17.2226L15.5351 21.9374H31.7148L33.4023 25.3124Z" fill="white"/>
<path fill-rule="evenodd" clip-rule="evenodd" d="M25 17.4375H25.3693C25.6309 18.7194 26.7666 19.6875 28.125 19.6875C29.6758 19.6875 30.9375 18.4258 30.9375 16.875C30.9375 15.3242 29.6758 14.0625 28.125 14.0625C26.7671 14.0625 25.6309 15.0306 25.3693 16.3125H25V17.4375ZM28.125 15.1875C29.0554 15.1875 29.8125 15.9446 29.8125 16.875C29.8125 17.8054 29.0554 18.5625 28.125 18.5625C27.1946 18.5625 26.4375 17.8054 26.4375 16.875C26.4375 15.9446 27.1946 15.1875 28.125 15.1875Z" fill="white"/>
<path fill-rule="evenodd" clip-rule="evenodd" d="M11.7557 15.1875H12V16.3125H11.8125V18.5625H4.5C2.94919 18.5625 1.6875 17.3008 1.6875 15.75C1.6875 14.1992 2.94919 12.9375 4.5 12.9375H9C10.3584 12.9375 11.4941 13.9056 11.7557 15.1875ZM10.6875 17.4375H4.5C3.56962 17.4375 2.8125 16.6804 2.8125 15.75C2.8125 14.8196 3.56962 14.0625 4.5 14.0625H9C9.93038 14.0625 10.6875 14.8196 10.6875 15.75V17.4375Z" fill="white"/>
<path fill-rule="evenodd" clip-rule="evenodd" d="M35.4375 6.75C35.4375 5.81962 34.6804 5.0625 33.75 5.0625V3.9375C34.6804 3.9375 35.4375 3.18038 35.4375 2.25C35.4375 1.31962 34.6804 0.5625 33.75 0.5625H24.75C23.8196 0.5625 23.0625 1.31962 23.0625 2.25C23.0625 3.18038 23.8196 3.9375 24.75 3.9375V5.0625C24.0176 5.0625 23.3989 5.53444 23.166 6.1875H23V7.3125H23.166C23.3989 7.96556 24.0176 8.4375 24.75 8.4375V9.5625C23.8196 9.5625 23.0625 10.3196 23.0625 11.25C23.0625 12.1804 23.8196 12.9375 24.75 12.9375H33.75C34.6804 12.9375 35.4375 12.1804 35.4375 11.25C35.4375 10.3196 34.6804 9.5625 33.75 9.5625V8.4375C34.6804 8.4375 35.4375 7.68038 35.4375 6.75ZM24.1875 2.25C24.1875 1.9395 24.4395 1.6875 24.75 1.6875H33.75C34.0605 1.6875 34.3125 1.9395 34.3125 2.25C34.3125 2.5605 34.0605 2.8125 33.75 2.8125H24.75C24.4395 2.8125 24.1875 2.5605 24.1875 2.25ZM25.875 3.9375H32.625V5.0625H25.875V3.9375ZM24.1875 6.75C24.1875 6.4395 24.4395 6.1875 24.75 6.1875H33.75C34.0605 6.1875 34.3125 6.4395 34.3125 6.75C34.3125 7.0605 34.0605 7.3125 33.75 7.3125H24.75C24.4395 7.3125 24.1875 7.0605 24.1875 6.75ZM34.3125 11.25C34.3125 11.5605 34.0605 11.8125 33.75 11.8125H24.75C24.4395 11.8125 24.1875 11.5605 24.1875 11.25C24.1875 10.9395 24.4395 10.6875 24.75 10.6875H33.75C34.0605 10.6875 34.3125 10.9395 34.3125 11.25ZM32.625 9.5625H25.875V8.4375H32.625V9.5625Z" fill="white"/>
<path fill-rule="evenodd" clip-rule="evenodd" d="M16 6.19851V7.33098C15.9184 7.31881 15.8349 7.3125 15.75 7.3125H15.1875V10.125C15.1875 11.0554 14.4304 11.8125 13.5 11.8125H2.25C1.31962 11.8125 0.5625 11.0554 0.5625 10.125V2.25C0.5625 1.31962 1.31962 0.5625 2.25 0.5625H13.5C14.4304 0.5625 15.1875 1.31962 15.1875 2.25V6.1875H15.75C15.8342 6.1875 15.9176 6.19122 16 6.19851ZM14.0625 10.125C14.0625 10.4355 13.8105 10.6875 13.5 10.6875H2.25C1.9395 10.6875 1.6875 10.4355 1.6875 10.125V2.25C1.6875 1.9395 1.9395 1.6875 2.25 1.6875H13.5C13.8105 1.6875 14.0625 1.9395 14.0625 2.25V10.125Z" fill="white"/>
</g>
<defs>
<clipPath id="clip0_5183_2033">
<rect width="36" height="36" fill="white"/>
</clipPath>
</defs>
</svg>
