<svg width="64" height="64" viewBox="0 0 64 64" fill="none" xmlns="http://www.w3.org/2000/svg">
<path d="M2.20508 51.0061V13H61.7913V51.0061H2.20508Z" fill="#FF9201"/>
<path d="M61.7932 51.0059L36.9061 31.7319C33.865 29.6409 29.8385 29.6299 26.7852 31.7021C18.2335 37.5074 2.20703 51.0059 2.20703 51.0059H61.7932Z" fill="#BCDCFF"/>
<path d="M27.7597 31.1439H27.5854L2.20508 13.0061L2.20605 51.0059C2.20605 51.0059 18.2325 37.5075 26.7832 31.7022C27.0976 31.4893 27.4276 31.3127 27.7597 31.1439Z" fill="#A7D0FE"/>
<path d="M36.4126 31.1439H35.8906C36.236 31.3204 36.5781 31.508 36.9036 31.732L61.7919 51.006V13.0061L36.4126 31.1439Z" fill="#A7D0FE"/>
<path d="M61.7913 13.0061L36.9041 32.28C33.863 34.3711 29.8365 34.3821 26.7833 32.3098C18.2316 26.5046 2.20508 13.0061 2.20508 13.0061H61.7913Z" fill="white"/>
</svg>
