<svg width="14" height="14" viewBox="0 0 14 14" fill="none" xmlns="http://www.w3.org/2000/svg">
<path fill-rule="evenodd" clip-rule="evenodd" d="M7.00065 2.33325C7.32282 2.33325 7.58398 2.59442 7.58398 2.91659V6.41659H11.084C11.4062 6.41659 11.6673 6.67775 11.6673 6.99992C11.6673 7.32208 11.4062 7.58325 11.084 7.58325H7.58398V11.0833C7.58398 11.4054 7.32282 11.6666 7.00065 11.6666C6.67849 11.6666 6.41732 11.4054 6.41732 11.0833V7.58325H2.91732C2.59515 7.58325 2.33398 7.32208 2.33398 6.99992C2.33398 6.67775 2.59515 6.41659 2.91732 6.41659H6.41732V2.91659C6.41732 2.59442 6.67849 2.33325 7.00065 2.33325Z" fill="white"/>
</svg>
