<svg width="108" height="32" viewBox="0 0 108 32" fill="none" xmlns="http://www.w3.org/2000/svg">
<g clip-path="url(#clip0_5495_1606)">
<path d="M29.9082 0.477111H36.1431V3.68538L36.222 3.76051C36.3554 3.68645 36.4812 3.59964 36.5978 3.5013C38.0029 2.06979 39.7507 1.02102 41.6752 0.454572C42.9989 0.068039 44.3819 -0.0745327 45.7566 0.0338175C46.948 0.123979 48.1318 0.334358 49.3194 0.492141C49.5524 0.522196 49.6652 0.631141 49.6238 0.867817C49.585 1.27585 49.521 1.6811 49.4322 2.08125C49.0376 3.475 48.6054 4.85748 48.1882 6.24373C48.1581 6.34516 48.1243 6.44283 48.113 6.47289C47.3388 6.25124 46.6097 5.97699 45.8355 5.83048C42.9906 5.28575 40.6454 6.30008 38.6761 8.29867C37.8507 9.10495 37.1989 10.0714 36.7607 11.1386C36.3225 12.2059 36.1073 13.3514 36.1281 14.5048C36.1544 20.2001 36.1281 25.8953 36.1281 31.5905V31.9887H29.9082V0.477111Z" fill="url(#paint0_linear_5495_1606)"/>
<path d="M105.748 24.5091L104.098 22.7622C103.929 22.9538 103.797 23.1153 103.647 23.2581C100.426 26.3349 96.6719 27.1238 92.4702 25.7601C91.5881 25.4964 90.7692 25.0556 90.0635 24.4645C89.3578 23.8734 88.7803 23.1446 88.3662 22.3226C87.9556 21.484 87.7532 20.5587 87.7762 19.6253H96.4652C97.6951 19.6548 98.9238 19.5285 100.122 19.2496C104 18.2353 106.691 15.9625 107.683 11.9691C108.311 9.437 108.089 6.99887 106.609 4.77487C105.424 3.03222 103.712 1.71543 101.723 1.01812C98.8782 -0.0494046 95.7862 -0.276316 92.816 0.364449C87.6258 1.41634 83.5895 5.01155 82.1388 9.99676H88.5729C89.4233 8.1901 90.9255 6.77164 92.7784 6.02587C94.7285 5.16531 96.9306 5.06745 98.9494 5.75163C99.6489 5.98929 100.283 6.38676 100.802 6.91246C101.376 7.42972 101.766 8.12064 101.91 8.87971C102.055 9.63879 101.947 10.4243 101.603 11.1163C101.254 11.916 100.703 12.6111 100.004 13.1329C99.3046 13.6547 98.4813 13.9851 97.6152 14.0916C97.084 14.1722 96.5477 14.2137 96.0104 14.2156C94.3217 14.2156 92.633 14.2156 90.9444 14.2156H81.5488C81.5225 15.6995 81.5488 17.1834 81.5488 18.6673C81.563 21.2654 82.3953 23.7931 83.9278 25.8916C85.8534 28.5476 88.6438 30.451 91.82 31.275C95.0784 32.1879 98.3405 31.9813 101.569 31.1022C103.933 30.5016 106.084 29.2556 107.781 27.5032C107.846 27.453 107.898 27.3886 107.934 27.3151C107.971 27.2415 107.989 27.1606 107.989 27.0787C107.989 26.9968 107.971 26.9159 107.934 26.8423C107.898 26.7688 107.846 26.7044 107.781 26.6542L105.748 24.5091Z" fill="url(#paint1_linear_5495_1606)"/>
<path d="M67.0546 24.5541C66.9794 24.4639 66.8666 24.385 66.8328 24.2836C66.6073 23.5924 66.3931 22.8974 66.1789 22.2061C63.9089 14.9105 61.639 7.61492 59.369 0.319306C59.2976 0.0901446 59.2149 -0.00377071 58.9518 -1.39645e-05C56.9036 -1.39645e-05 54.8516 -1.39645e-05 52.8034 -1.39645e-05H52.4727L52.5704 0.326822C55.9803 10.7706 59.389 21.2131 62.7965 31.6544C62.8104 31.7406 62.8575 31.818 62.9277 31.8699C62.998 31.9219 63.0858 31.9443 63.1723 31.9324C65.788 31.9324 68.4025 31.9324 71.0157 31.9324C71.26 31.9324 71.3389 31.846 71.3915 31.6281C72.1282 29.2638 72.866 26.9021 73.6051 24.5428L67.0546 24.5541Z" fill="url(#paint2_linear_5495_1606)"/>
<path d="M80.8912 0.00756836C78.9106 0.00756836 76.9337 0.00756836 74.9569 0.00756836C74.7389 0.00756836 74.7126 0.127785 74.6638 0.278055C73.4561 4.1976 72.2472 8.11714 71.0371 12.0367C70.2855 14.4936 69.525 16.9518 68.7559 19.4112H75.2313C77.148 13.2777 79.0634 7.14164 80.9776 1.00311C81.0474 0.684418 81.0877 0.35996 81.0979 0.0338684C80.9889 0.0188414 80.94 0.00756836 80.8912 0.00756836Z" fill="url(#paint3_linear_5495_1606)"/>
<path d="M26.1265 20.3203C25.6192 17.946 24.1535 16.2179 22.1165 14.9594C20.0795 13.7009 17.7833 13.1111 15.4344 12.7392C13.8634 12.4912 12.2775 12.3259 10.7065 12.063C10.227 11.9838 9.75257 11.8759 9.28593 11.7399C9.28593 11.7399 -1.18071 9.16649 5.2496 1.30737C2.12652 2.73118 0.26996 5.15428 0.0219175 8.77203C-0.135297 10.4132 0.261613 12.0597 1.14938 13.4492C2.07955 14.8021 3.35517 15.8814 4.84372 16.5748C7.20764 17.7619 9.75571 18.2541 12.3602 18.6297C13.7657 18.8326 15.1751 19.0355 16.5694 19.3022C17.5043 19.4511 18.3847 19.8393 19.125 20.4292C19.431 20.6641 19.6831 20.962 19.864 21.3027C20.0449 21.6434 20.1506 22.019 20.1737 22.4041C20.1969 22.7891 20.1371 23.1746 19.9983 23.5345C19.8595 23.8945 19.645 24.2204 19.3692 24.4903C18.7703 25.1436 18.0092 25.627 17.1632 25.8915C15.3195 26.4319 13.3795 26.5601 11.4807 26.2672C9.3802 25.9575 7.37852 25.171 5.62918 23.9681C5.00532 23.5586 4.41528 23.089 3.79142 22.6307L0.0670172 27.3078L0.33761 27.5257C5.2233 31.3088 10.7516 32.6349 16.8287 31.722C19.1181 31.4134 21.2794 30.4845 23.0786 29.036C25.8559 26.7594 26.8706 23.8141 26.1265 20.3203Z" fill="url(#paint4_linear_5495_1606)"/>
<path d="M11.7961 0.0187945C11.0182 0.0488485 10.2402 0.0976851 9.47352 0.187847C8.72188 1.13079 7.69964 2.61846 7.39146 4.12492C7.15146 5.04459 7.25709 6.0203 7.68836 6.86735C7.94029 6.69947 8.20406 6.55006 8.47759 6.42029C10.8265 5.29327 13.2693 5.21438 15.7573 5.80043C16.3369 5.93582 16.9049 6.1167 17.456 6.3414L19.2036 0.973007C16.8076 0.23197 14.3018 -0.0908211 11.7961 0.0187945Z" fill="url(#paint5_linear_5495_1606)"/>
</g>
<defs>
<linearGradient id="paint0_linear_5495_1606" x1="39.7702" y1="-0.00134277" x2="39.7702" y2="31.9887" gradientUnits="userSpaceOnUse">
<stop stop-color="#F7EA76"/>
<stop offset="1" stop-color="#D1AF4D"/>
</linearGradient>
<linearGradient id="paint1_linear_5495_1606" x1="94.7751" y1="0.00817871" x2="94.7751" y2="31.868" gradientUnits="userSpaceOnUse">
<stop stop-color="#F7EA76"/>
<stop offset="1" stop-color="#D1AF4D"/>
</linearGradient>
<linearGradient id="paint2_linear_5495_1606" x1="63.0389" y1="-0.00012207" x2="63.0389" y2="31.9355" gradientUnits="userSpaceOnUse">
<stop stop-color="#F7EA76"/>
<stop offset="1" stop-color="#D1AF4D"/>
</linearGradient>
<linearGradient id="paint3_linear_5495_1606" x1="74.9269" y1="0.00756836" x2="74.9269" y2="19.4112" gradientUnits="userSpaceOnUse">
<stop stop-color="#F7EA76"/>
<stop offset="1" stop-color="#D1AF4D"/>
</linearGradient>
<linearGradient id="paint4_linear_5495_1606" x1="13.1754" y1="1.30737" x2="13.1754" y2="31.9994" gradientUnits="userSpaceOnUse">
<stop stop-color="#F7EA76"/>
<stop offset="1" stop-color="#D1AF4D"/>
</linearGradient>
<linearGradient id="paint5_linear_5495_1606" x1="13.2346" y1="-0.0020752" x2="13.2346" y2="6.86735" gradientUnits="userSpaceOnUse">
<stop stop-color="#F7EA76"/>
<stop offset="1" stop-color="#D1AF4D"/>
</linearGradient>
<clipPath id="clip0_5495_1606">
<rect width="108" height="32" fill="white"/>
</clipPath>
</defs>
</svg>
